<svg id="Capa_1" enable-background="new 0 0 512 512" height="512" viewBox="0 0 512 512" width="512" xmlns="http://www.w3.org/2000/svg"><g><g><path d="m453.31 461.125c0 24.508-19.907 44.375-44.464 44.375h-305.692c-24.557 0-44.464-19.867-44.464-44.375v-408.25c0-24.508 19.907-44.375 44.464-44.375h190.303c8.857 0 17.35 3.516 23.606 9.773l126.505 126.521c6.239 6.239 9.742 14.694 9.742 23.508z" fill="#f9f8f9"/><path d="m133.15 505.5h-30c-24.55 0-44.46-19.87-44.46-44.38v-408.24c0-24.51 19.91-44.38 44.46-44.38h30c-24.55 0-44.46 19.87-44.46 44.38v408.24c0 24.51 19.91 44.38 44.46 44.38z" fill="#e3e0e4"/><path d="m453.31 168.3v16.24h-115.96c-33.12 0-60.06-26.95-60.06-60.07v-115.97h16.17c8.85 0 17.35 3.52 23.6 9.77l126.51 126.52c6.24 6.24 9.74 14.7 9.74 23.51z" fill="#e3e0e4"/><path d="m450.32 154.54h-112.97c-16.6 0-30.06-13.46-30.06-30.07v-112.96c3.61 1.63 6.92 3.91 9.77 6.76l126.51 126.52c2.85 2.85 5.12 6.15 6.75 9.75z" fill="#9ec8fc"/><path d="m435 439.5h-358c-22.091 0-40-17.909-40-40v-146c0-22.091 17.909-40 40-40h358c22.091 0 40 17.909 40 40v146c0 22.091-17.909 40-40 40z" fill="#9ec8fc"/><path d="m102 439.5h-25c-22.09 0-40-17.91-40-40v-146c0-22.09 17.91-40 40-40h25c-22.09 0-40 17.91-40 40v146c0 22.09 17.91 40 40 40z" fill="#62a4fb"/></g><g><path d="m58.689 140.856c4.143 0 7.5-3.357 7.5-7.5v-81.481c0-20.333 16.582-36.875 36.965-36.875h44.367c4.143 0 7.5-3.357 7.5-7.5s-3.357-7.5-7.5-7.5h-44.367c-28.653 0-51.965 23.271-51.965 51.875v81.481c0 4.143 3.358 7.5 7.5 7.5z"/><path d="m460.811 212.656v-45.354c0-10.879-4.24-21.111-11.938-28.811l-126.506-126.52c-7.718-7.72-17.985-11.971-28.91-11.971h-110.936c-4.143 0-7.5 3.357-7.5 7.5s3.357 7.5 7.5 7.5h110.936c2.165 0 4.288.264 6.334.775v107.696c0 20.714 16.85 37.566 37.561 37.566h26.784c4.143 0 7.5-3.357 7.5-7.5s-3.357-7.5-7.5-7.5h-26.784c-12.439 0-22.561-10.123-22.561-22.566v-97.863l120.414 120.429h-36.07c-4.143 0-7.5 3.357-7.5 7.5s3.357 7.5 7.5 7.5h45.91c.505 2.025.765 4.125.765 6.265v38.954c-3.475-.812-7.091-1.256-10.81-1.256h-358c-3.719 0-7.335.444-10.811 1.256v-37.899c0-4.143-3.357-7.5-7.5-7.5s-7.5 3.357-7.5 7.5v44.299c-13.04 8.477-21.689 23.165-21.689 39.844v146c0 16.679 8.649 31.367 21.689 39.844v21.781c0 28.604 23.312 51.875 51.965 51.875h305.691c28.653 0 51.965-23.271 51.965-51.875v-21.781c13.041-8.477 21.689-23.165 21.689-39.844v-146c.001-16.679-8.648-31.367-21.688-39.844zm6.689 185.844c0 17.921-14.579 32.5-32.5 32.5h-33.926c-4.143 0-7.5 3.357-7.5 7.5s3.357 7.5 7.5 7.5h33.926c3.719 0 7.335-.443 10.811-1.256v15.381c0 20.333-16.582 36.875-36.965 36.875h-305.692c-20.383 0-36.965-16.542-36.965-36.875v-15.381c3.476.813 7.092 1.256 10.811 1.256h289.074c4.143 0 7.5-3.357 7.5-7.5s-3.357-7.5-7.5-7.5h-289.074c-17.921 0-32.5-14.579-32.5-32.5v-146c0-17.921 14.579-32.5 32.5-32.5h358c17.921 0 32.5 14.579 32.5 32.5z"/><path d="m442.268 267.676h-21.513c-4.143 0-7.5 3.357-7.5 7.5s3.357 7.5 7.5 7.5h14.013v93.148c0 4.143 3.357 7.5 7.5 7.5s7.5-3.357 7.5-7.5v-100.648c0-4.143-3.358-7.5-7.5-7.5z"/><path d="m221.715 267.676h-21.513c-4.143 0-7.5 3.357-7.5 7.5s3.357 7.5 7.5 7.5h14.013v93.148c0 4.143 3.357 7.5 7.5 7.5s7.5-3.357 7.5-7.5v-100.648c0-4.143-3.358-7.5-7.5-7.5z"/><path d="m91.245 267.676h-21.513c-4.143 0-7.5 3.357-7.5 7.5s3.357 7.5 7.5 7.5h14.013v93.148c0 4.143 3.357 7.5 7.5 7.5s7.5-3.357 7.5-7.5v-100.648c0-4.143-3.357-7.5-7.5-7.5z"/><path d="m280.693 265.622c-20.185 0-36.605 16.421-36.605 36.605v46.545c0 20.185 16.421 36.605 36.605 36.605s36.604-16.421 36.604-36.605v-46.545c.001-20.184-16.42-36.605-36.604-36.605zm21.605 83.15c0 11.913-9.691 21.605-21.604 21.605s-21.605-9.692-21.605-21.605v-46.545c0-11.913 9.692-21.605 21.605-21.605s21.604 9.692 21.604 21.605z"/><path d="m367.776 265.622c-20.184 0-36.604 16.421-36.604 36.605v46.545c0 20.185 16.421 36.605 36.604 36.605 20.185 0 36.605-16.421 36.605-36.605v-46.545c.001-20.184-16.42-36.605-36.605-36.605zm21.606 83.15c0 11.913-9.692 21.605-21.605 21.605s-21.604-9.692-21.604-21.605v-46.545c0-11.913 9.691-21.605 21.604-21.605s21.605 9.692 21.605 21.605z"/><path d="m150.224 265.622c-20.185 0-36.605 16.421-36.605 36.605v46.545c0 20.185 16.421 36.605 36.605 36.605s36.604-16.421 36.604-36.605v-46.545c0-20.184-16.421-36.605-36.604-36.605zm21.604 83.15c0 11.913-9.691 21.605-21.604 21.605s-21.605-9.692-21.605-21.605v-46.545c0-11.913 9.692-21.605 21.605-21.605s21.604 9.692 21.604 21.605z"/></g></g></svg>