<svg height="512" viewBox="0 0 46 58" width="512" xmlns="http://www.w3.org/2000/svg"><g id="Page-1" fill="none" fill-rule="evenodd"><g id="009---Contact-Form" fill-rule="nonzero"><rect id="Rectangle-path" fill="#9fc9d3" height="58" rx="3" width="46"/><path id="Shape" d="m46 3v5h-46v-5c0-1.65685425 1.34314575-3 3-3h40c1.6568542 0 3 1.34314575 3 3z" fill="#3b97d3"/><circle id="Oval" cx="4" cy="4" fill="#e64c3c" r="1"/><circle id="Oval" cx="8" cy="4" fill="#f0c419" r="1"/><circle id="Oval" cx="12" cy="4" fill="#7ed09e" r="1"/><path id="Shape" d="m42 5h-10c-.5522847 0-1-.44771525-1-1s.4477153-1 1-1h10c.5522847 0 1 .44771525 1 1s-.4477153 1-1 1z" fill="#2980ba"/><rect id="Rectangle-path" fill="#fff" height="8" rx="1" width="36" x="5" y="24"/><rect id="Rectangle-path" fill="#fff" height="8" rx="1" width="36" x="5" y="36"/><rect id="Rectangle-path" fill="#955ba5" height="6" rx="3" width="14" x="13" y="48"/><path id="Shape" d="m37 29h-28c-.55228475 0-1-.4477153-1-1s.44771525-1 1-1h28c.5522847 0 1 .4477153 1 1s-.4477153 1-1 1z" fill="#95a5a5"/><path id="Shape" d="m37 41h-28c-.55228475 0-1-.4477153-1-1s.44771525-1 1-1h28c.5522847 0 1 .4477153 1 1s-.4477153 1-1 1z" fill="#95a5a5"/><rect id="Rectangle-path" fill="#894b9d" height="4" rx="1" width="4" x="5" y="49"/><path id="Shape" d="m23 12c2.7179327-.0501539 5.4033664.5971045 7.8 1.88.1281316.0743116.2375849.1769241.32.3l1.709 2.563c.1110255.1645767.1705528.3584756.171.557v1.7c0 .5522847-.4477153 1-1 1h-3c-.5522847 0-1-.4477153-1-1v-1.329c.0034953-.4181242-.2563415-.7932662-.649-.937-2.8175113-.9781969-5.8824887-.9781969-8.7 0-.3926585.1437338-.6524953.5188758-.649.937v1.329c0 .5522847-.4477153 1-1 1h-3.002c-.5522847 0-1-.4477153-1-1v-1.7c-.0000443-.1975323.0584139-.3906531.168-.555l1.709-2.563c.0824151-.1230759.1918684-.2256884.32-.3 2.3973389-1.2840893 5.08388-1.9320543 7.803-1.882z" fill="#955ba5"/></g></g></svg>