<svg id="Capa_1" enable-background="new 0 0 510.32 510.32" height="512" viewBox="0 0 510.32 510.32" width="512" xmlns="http://www.w3.org/2000/svg"><g><g><path d="m333.954 502.818h-269.262c-14.383 0-26.043-11.66-26.043-26.043v-443.23c0-14.383 11.66-26.043 26.043-26.043h269.262c14.383 0 26.043 11.66 26.043 26.043v443.23c0 14.383-11.66 26.043-26.043 26.043z" fill="#8ac9fe"/><path d="m99.042 7.502v29.625c0 10.067 8.163 18.239 18.239 18.239h164.086c10.067 0 18.23-8.173 18.23-18.239v-29.625z" fill="#685e68"/><path d="m140.245 303.44v66.432h-57.396v-66.432c0-6.526 5.286-11.813 11.813-11.813h33.771c6.525 0 11.812 5.286 11.812 11.813z" fill="#fe646f"/><path d="m227.641 369.871v-101.373c0-6.526-5.286-11.822-11.813-11.822h-33.761c-6.536 0-11.822 5.296-11.822 11.822v101.373z" fill="#ffe177"/><ellipse cx="392.597" cy="137.161" fill="#6cf5c2" rx="78.564" ry="78.999"/><path d="m94.69 502.82h-30c-14.38 0-26.04-11.66-26.04-26.04v-443.24c0-14.38 11.66-26.04 26.04-26.04h30c-14.38 0-26.04 11.66-26.04 26.04v443.24c0 14.38 11.66 26.04 26.04 26.04z" fill="#60b7ff"/><path d="m124.66 291.63c-6.53 0-11.81 5.28-11.81 11.81v66.43h-30v-66.43c0-6.53 5.28-11.81 11.81-11.81z" fill="#fd4755"/><path d="m257.64 369.87 57.397.001v-115.467c0-6.526-5.286-11.822-11.813-11.822h-33.761c-6.526 0-11.822 5.296-11.822 11.822z" fill="#6cf5c2"/><path d="m212.07 256.68c-6.54 0-11.83 5.29-11.83 11.82v101.37h-30v-101.37c0-6.53 5.29-11.82 11.83-11.82z" fill="#ffd064"/><g fill="#05e39c"><path d="m299.46 242.58c-6.52 0-11.82 5.3-11.82 11.82v115.47h-30v-115.47c0-6.52 5.3-11.82 11.82-11.82z"/><path d="m407.59 214.72c-4.87.95-9.91 1.44-15.06 1.44-43.38-.03-78.53-35.43-78.5-79.06.04-43.63 35.24-78.97 78.63-78.94 5.1 0 10.09.5 14.92 1.45-36.18 7.04-63.51 39.05-63.55 77.49-.03 38.49 27.33 70.58 63.56 77.62z"/></g></g><g><path d="m360 279.16c-4.143 0-7.5 3.358-7.5 7.5v190.12c0 10.223-8.321 18.54-18.55 18.54h-269.261c-10.223 0-18.54-8.317-18.54-18.54v-317.12c0-4.142-3.357-7.5-7.5-7.5s-7.5 3.358-7.5 7.5v317.12c0 18.494 15.046 33.54 33.54 33.54h269.261c18.499 0 33.55-15.046 33.55-33.54v-190.12c0-4.142-3.357-7.5-7.5-7.5z"/><path d="m104.448 452.606c-4.143 0-7.5 3.358-7.5 7.5s3.357 7.5 7.5 7.5h189.753c4.143 0 7.5-3.358 7.5-7.5s-3.357-7.5-7.5-7.5z"/><path d="m128.814 284.127h-33.771c-10.649 0-19.313 8.664-19.313 19.313v58.932h-3.273c-4.143 0-7.5 3.358-7.5 7.5s3.357 7.5 7.5 7.5h253.735c4.143 0 7.5-3.358 7.5-7.5s-3.357-7.5-7.5-7.5h-3.273v-107.968c0-10.654-8.663-19.322-19.313-19.322h-33.761c-10.655 0-19.323 8.668-19.323 19.322v107.967h-15v-93.873c0-10.655-8.663-19.323-19.313-19.323h-33.761c-10.654 0-19.322 8.668-19.322 19.323v93.873h-15v-58.932c.001-10.648-8.662-19.312-19.312-19.312zm4.313 78.244h-42.397v-58.932c0-2.378 1.935-4.313 4.313-4.313h33.771c2.378 0 4.313 1.935 4.313 4.313zm132.395-107.967c0-2.383 1.939-4.322 4.323-4.322h33.761c2.378 0 4.313 1.939 4.313 4.322v107.967h-42.396v-107.967zm-87.395 14.094c0-2.384 1.939-4.323 4.322-4.323h33.761c2.378 0 4.313 1.939 4.313 4.323v93.873h-42.396z"/><path d="m391.523 47.103c-8.327 0-16.386 1.168-24.023 3.347v-16.91c0-18.494-15.051-33.54-33.55-33.54h-269.261c-18.494 0-33.54 15.046-33.54 33.54v91.62c0 4.142 3.357 7.5 7.5 7.5s7.5-3.358 7.5-7.5v-91.62c0-10.223 8.317-18.54 18.54-18.54h26.853v22.128c0 14.193 11.547 25.739 25.739 25.739h164.086c14.188 0 25.729-11.546 25.729-25.739v-22.128h26.854c10.229 0 18.55 8.317 18.55 18.54v22.746c-28.796 14.38-48.623 44.148-48.623 78.464s19.827 64.084 48.623 78.464v39.446c0 4.142 3.357 7.5 7.5 7.5s7.5-3.358 7.5-7.5v-33.611c7.637 2.18 15.696 3.347 24.023 3.347 48.329 0 87.647-39.318 87.647-87.647s-39.317-87.646-87.647-87.646zm-99.426-9.975c0 5.922-4.813 10.739-10.729 10.739h-164.087c-5.922 0-10.739-4.817-10.739-10.739v-22.128h185.555zm99.426 170.269c-40.058 0-72.646-32.589-72.646-72.647s32.589-72.647 72.646-72.647 72.647 32.589 72.647 72.647-32.589 72.647-72.647 72.647z"/><path d="m435.002 98.374c-3.274-2.539-7.983-1.944-10.523 1.328l-39.244 50.582-23.744-25.327c-2.832-3.022-7.579-3.175-10.602-.342-3.021 2.833-3.175 7.58-.342 10.601l29.755 31.738c1.422 1.516 3.403 2.371 5.472 2.371.116 0 .232-.003.35-.008 2.192-.102 4.23-1.16 5.576-2.894l44.631-57.525c2.538-3.274 1.943-7.985-1.329-10.524z"/></g></g></svg>