<svg id="Capa_1" enable-background="new 0 0 512 512" height="512" viewBox="0 0 512 512" width="512" xmlns="http://www.w3.org/2000/svg"><g><g><path d="m7.5 245.387v199.411c0 13.807 11.193 25 25 25h447c13.807 0 25-11.193 25-25v-199.411z" fill="#c86d36"/><path d="m464.815 245.387v199.411c0 13.807-11.193 25-25 25h39.685c13.807 0 25-11.193 25-25v-199.411z" fill="#ac5e2e"/><g><path d="m383.886 170.201h-255.772c-9.488 0-16.592-8.711-14.697-18l16.245-79.599c3.595-17.616 19.254-30.401 37.233-30.401h178.211c17.979 0 33.638 12.786 37.233 30.401l16.245 79.599c1.896 9.297-5.219 18-14.698 18zm-237.401-30h219.03l-12.571-61.6c-.757-3.708-4.053-6.4-7.838-6.4h-178.211c-3.785 0-7.082 2.692-7.838 6.4z" fill="#5a5a5a"/></g><path d="m7.5 155.058v140.977c0 9.389 7.611 17 17 17h463c9.389 0 17-7.611 17-17v-140.977c0-13.807-11.193-25-25-25h-447c-13.807 0-25 11.193-25 25z" fill="#9e5528"/><path d="m121.415 366.075h-30.716c-5.633 0-10.2-4.567-10.2-10.2v-70.322c0-14.115 11.443-25.558 25.558-25.558 14.115 0 25.558 11.443 25.558 25.558v70.322c0 5.634-4.566 10.2-10.2 10.2z" fill="#fece85"/><path d="m421.301 366.075h-30.717c-5.633 0-10.2-4.567-10.2-10.2v-70.322c0-14.115 11.443-25.558 25.558-25.558 14.115 0 25.558 11.443 25.558 25.558v70.322c.001 5.634-4.566 10.2-10.199 10.2z" fill="#fece85"/><path d="m106.057 259.995c-14.115 0-25.558 11.443-25.558 25.558v27.482h51.117v-27.482c-.001-14.115-11.443-25.558-25.559-25.558z" fill="#fea613"/><path d="m405.943 259.995c-14.115 0-25.558 11.443-25.558 25.558v27.482h51.116v-27.482c0-14.115-11.443-25.558-25.558-25.558z" fill="#fea613"/><path d="m479.5 130.058h-39.685c13.807 0 25 11.193 25 25v140.977c0 9.389-7.611 17-17 17h39.685c9.389 0 17-7.611 17-17v-140.977c0-13.807-11.193-25-25-25z" fill="#904d24"/></g><path d="m504.5 205.941c4.142 0 7.5-3.358 7.5-7.5v-43.382c0-17.92-14.58-32.5-32.5-32.5h-79.312l-10.501-51.456c-4.305-21.092-23.054-36.401-44.582-36.401h-178.21c-21.527 0-40.277 15.309-44.582 36.402l-10.501 51.456h-79.312c-17.92 0-32.5 14.58-32.5 32.5v289.741c0 17.96 14.538 32.5 32.5 32.5h27.24c4.13 0 7.5-3.37 7.5-7.5 0-4.14-3.37-7.5-7.5-7.5h-27.24c-9.63-.02-17.48-7.87-17.5-17.5v-126.18c2.974 1.255 6.184 1.92 9.5 1.92h48.499v35.336c0 9.76 7.94 17.7 17.7 17.7h30.717c9.76 0 17.7-7.94 17.7-17.7v-35.336h233.77v35.336c0 9.76 7.94 17.7 17.7 17.7h30.717c9.76 0 17.7-7.94 17.7-17.7v-35.336c12.152 0 10.64-.004 48.422-.004.026 0 .051.004.077.004 3.335 0 6.542-.672 9.5-1.92v126.18c-.02 9.63-7.87 17.48-17.5 17.5h-384.762c-4.14 0-7.5 3.36-7.5 7.5 0 4.13 3.36 7.5 7.5 7.5h.01 384.75c8.68 0 16.84-3.38 22.98-9.52s9.52-14.3 9.52-22.98c0-16.435 0-203.426 0-211.358 0-4.142-3.358-7.5-7.5-7.5s-7.5 3.358-7.5 7.5v62.595c0 .036-.005.071-.005.108-.067 5.183-4.304 9.392-9.495 9.392h-48.499v-19.982c0-18.229-14.83-33.058-33.058-33.058s-33.058 14.83-33.058 33.058v19.982h-233.77v-19.982c0-18.229-14.83-33.058-33.058-33.058s-33.058 14.83-33.058 33.058v19.982c-52.343 0-49.063.083-50.41-.193-4.284-.887-7.524-4.668-7.583-9.195 0-.037-.006-.074-.006-.111v-140.981c0-9.649 7.851-17.5 17.5-17.5h447c9.649 0 17.5 7.851 17.5 17.5v43.382c0 4.143 3.358 7.501 7.5 7.501zm-380.385 149.934c0 1.489-1.211 2.7-2.7 2.7h-30.716c-1.489 0-2.7-1.211-2.7-2.7v-35.336h10.558v19.016c0 4.142 3.358 7.5 7.5 7.5s7.5-3.358 7.5-7.5v-19.016h10.558zm299.886 0c0 1.489-1.211 2.7-2.7 2.7h-30.717c-1.489 0-2.7-1.211-2.7-2.7v-35.336h10.558v19.016c0 4.142 3.358 7.5 7.5 7.5s7.5-3.358 7.5-7.5v-19.016h10.558v35.336zm-36.116-70.322c0-9.957 8.101-18.058 18.058-18.058s18.058 8.101 18.058 18.058v19.982h-36.116zm-299.886 0c0-9.957 8.101-18.058 18.058-18.058s18.058 8.101 18.058 18.058v19.982h-36.116zm69.741-162.995 8.665-42.458c.044-.217.269-.4.49-.4h178.211c.221 0 .446.183.49.4l8.665 42.458zm211.829 0-9.277-45.457c-1.466-7.186-7.854-12.401-15.187-12.401h-178.21c-7.333 0-13.721 5.215-15.187 12.401l-9.277 45.457h-15.31l9.889-48.456c2.886-14.139 15.454-24.401 29.884-24.401h178.211c14.431 0 26.999 10.262 29.884 24.401l9.889 48.457h-15.309z"/></g></svg>